<svg width="200" height="200" viewBox="0 0 200 200" fill="none" xmlns="http://www.w3.org/2000/svg">
<path d="M85.4406 78.5453C85.0107 79.0205 85.0107 79.4731 85.4633 79.9256L99.9222 94.3845C100.352 94.8144 100.85 94.8144 101.28 94.3845L106.869 88.7955C111.123 84.5416 111.01 81.9394 108.204 79.1336C106.801 77.7307 104.991 77.2782 103.633 77.776C103.543 75.83 102.275 74.1104 101.506 73.341C97.7952 69.6301 94.4463 69.5396 90.1924 73.7936L85.4406 78.5453ZM96.3018 81.6227C95.8719 82.0526 95.3967 82.0752 94.9442 81.6227L93.2245 79.903C92.7719 79.4504 92.7945 78.9753 93.2245 78.5453L94.4463 77.3234C95.5325 76.2373 96.2113 75.83 97.6142 77.2329C99.0171 78.6358 98.6098 79.3147 97.5237 80.4008L96.3018 81.6227ZM101.936 87.3021C101.506 87.7321 101.031 87.7547 100.578 87.3021L99.5375 86.2613C99.085 85.8087 99.1076 85.3336 99.5375 84.9036L101.008 83.4329C102.094 82.3467 102.751 82.0073 103.814 83.0708C104.878 84.1343 104.448 84.7905 103.362 85.8766L101.936 87.3021ZM124.064 70.0615C124.562 70.5593 124.607 71.0571 124.155 71.5096L121.62 74.0439C121.191 74.4738 120.715 74.4964 120.263 74.0439L118.294 72.0753C117.842 71.6228 117.389 71.6228 116.937 72.0753L114.991 74.0213C114.561 74.4512 114.538 74.9264 114.991 75.3789L116.959 77.3475C117.412 77.8 117.412 78.2526 116.959 78.7051L114.425 81.2394C113.995 81.6693 113.475 81.6467 112.977 81.1489L103.383 71.5549C100.532 68.7038 97.9522 65.2192 103.043 60.128C108.135 55.0369 111.619 57.6164 114.47 60.4674L124.064 70.0615ZM110.578 64.3594C109.492 63.2732 108.791 62.8886 107.297 64.382C105.804 65.8754 106.189 66.5768 107.275 67.663L109.741 70.1293C110.171 70.5593 110.669 70.5593 111.099 70.1293L113.045 68.1834C113.475 67.7082 113.475 67.2557 113.022 66.8031L110.578 64.3594ZM130.832 53.4738C130.673 53.4059 130.583 53.2702 130.605 53.1118C130.945 51.0527 129.994 49.0615 127.89 46.9571C124.179 43.2462 120.83 43.1557 116.803 47.1834L111.847 52.1388C111.44 52.5461 111.44 53.1344 111.847 53.5417L126.283 67.978C126.691 68.3853 127.279 68.3853 127.686 67.978L130.221 65.4437C130.628 65.0364 130.628 64.4481 130.221 64.0408L126.646 60.4657C126.238 60.0584 126.238 59.4701 126.646 59.0628L127.551 58.1577C127.618 58.0898 127.732 58.0672 127.845 58.0898L134.746 60.2847C135.04 60.3978 135.357 60.3073 135.583 60.081L138.163 57.5015C138.864 56.8 138.593 55.8044 137.688 55.5329L130.832 53.4738ZM120.83 50.9395C121.916 49.8534 122.595 49.4461 123.998 50.849C125.401 52.2519 124.994 52.9307 123.908 54.0169L122.754 55.1709C122.346 55.5781 121.758 55.5781 121.351 55.1709L119.676 53.4964C119.269 53.0891 119.269 52.5008 119.676 52.0935L120.83 50.9395Z" fill="black"/>
<line x1="49.4404" y1="56.5701" x2="102.47" y2="109.6" stroke="black" stroke-width="4"/>
<line x1="99.6419" y1="109.6" x2="152.672" y2="56.5701" stroke="black" stroke-width="4"/>
<line x1="101.087" y1="106.561" x2="101.087" y2="157.998" stroke="black" stroke-width="3"/>
<line x1="75.3377" y1="193.546" x2="126.774" y2="193.546" stroke="black" stroke-width="3"/>
<path d="M57.3675 172.939C57.5835 172.891 57.6915 172.759 57.6795 172.543C57.6075 171.679 57.0315 170.071 54.5595 170.071C51.8715 170.071 51.6555 172.195 51.6675 172.555C51.6675 175.315 55.2795 175.087 55.5075 176.107C55.5795 176.431 55.1475 176.779 54.5595 176.779C53.9955 176.779 53.5515 176.443 53.5035 175.867C53.4795 175.615 53.3475 175.507 53.1075 175.555L51.7515 175.855C51.5355 175.903 51.4275 176.035 51.4395 176.251C51.4995 177.187 52.0395 178.843 54.5595 178.843C57.4035 178.843 57.8115 176.719 57.8115 176.359C57.8115 173.599 54.0195 173.623 53.8515 172.687C53.8035 172.411 54.0915 172.135 54.5595 172.135C55.1235 172.135 55.5195 172.447 55.6035 172.939C55.6395 173.179 55.7595 173.287 55.9995 173.239L57.3675 172.939ZM60.8027 170.263C61.0067 170.263 61.1387 170.347 61.2227 170.539L62.8547 174.535C62.9027 174.643 62.9987 174.619 62.9987 174.499V170.623C62.9987 170.383 63.1307 170.263 63.3587 170.263H64.7027C64.9427 170.263 65.0627 170.383 65.0627 170.623V178.303C65.0627 178.531 64.9427 178.663 64.7027 178.663H62.9387C62.7347 178.663 62.6027 178.579 62.5187 178.387L60.8867 174.391C60.8387 174.283 60.7427 174.307 60.7427 174.427V178.303C60.7427 178.531 60.6227 178.663 60.3827 178.663H59.0387C58.8107 178.663 58.6787 178.531 58.6787 178.303V170.623C58.6787 170.383 58.8107 170.263 59.0387 170.263H60.8027ZM72.0808 178.255C72.0808 178.519 71.9608 178.663 71.7208 178.663H70.3768C70.1488 178.663 70.0168 178.543 70.0168 178.303V177.259C70.0168 177.019 69.8968 176.899 69.6568 176.899H68.6248C68.3968 176.899 68.2648 177.019 68.2648 177.259V178.303C68.2648 178.543 68.1448 178.663 67.9048 178.663H66.5608C66.3328 178.663 66.2008 178.519 66.2008 178.255V173.167C66.2008 171.655 66.4408 170.047 69.1408 170.047C71.8408 170.047 72.0808 171.655 72.0808 173.167V178.255ZM70.0168 173.167C70.0168 172.591 69.9328 172.303 69.1408 172.303C68.3488 172.303 68.2648 172.591 68.2648 173.167V174.475C68.2648 174.703 68.3968 174.835 68.6248 174.835H69.6568C69.8968 174.823 70.0168 174.703 70.0168 174.463V173.167ZM73.1017 175.963C73.1017 176.755 73.2697 178.879 76.1137 178.879C78.6697 178.879 79.0657 177.163 79.1137 176.251C79.1257 176.071 79.0177 175.939 78.8497 175.903L77.4937 175.603C77.2537 175.543 77.0617 175.699 77.0257 175.951C76.9537 176.503 76.7737 176.815 76.1137 176.815C75.2257 176.815 75.1657 176.251 75.1657 175.327V173.599C75.1657 172.675 75.2257 172.111 76.1137 172.111C76.7617 172.111 76.9777 172.423 77.0377 172.951C77.0737 173.203 77.2657 173.371 77.5177 173.323L78.8497 173.023C79.0177 172.987 79.1257 172.855 79.1137 172.687C79.0657 171.763 78.6697 170.047 76.1137 170.047C73.2697 170.047 73.1017 172.171 73.1017 172.963V175.963ZM84.0645 174.211C84.0165 174.151 84.0285 174.103 84.0645 174.043L86.4885 170.707C86.6565 170.455 86.5605 170.263 86.2605 170.263H84.4845C84.2925 170.263 84.1605 170.335 84.0525 170.491L82.1685 173.083C82.1085 173.179 82.0245 173.155 82.0245 173.035V170.623C82.0245 170.383 81.9045 170.263 81.6645 170.263H80.2965C80.0685 170.263 79.9365 170.383 79.9365 170.623V178.303C79.9365 178.531 80.0685 178.663 80.2965 178.663H81.6645C81.9045 178.663 82.0245 178.531 82.0245 178.303V176.971C82.0245 176.911 82.0365 176.863 82.0725 176.815L82.5645 176.143C82.6125 176.071 82.6845 176.071 82.7325 176.143L84.2205 178.423C84.3285 178.591 84.4605 178.663 84.6525 178.663H86.4525C86.7405 178.663 86.8485 178.471 86.6805 178.231L84.0645 174.211ZM92.9691 172.939C93.1851 172.891 93.2931 172.759 93.2811 172.543C93.2091 171.679 92.6331 170.071 90.1611 170.071C87.4731 170.071 87.2571 172.195 87.2691 172.555C87.2691 175.315 90.8811 175.087 91.1091 176.107C91.1811 176.431 90.7491 176.779 90.1611 176.779C89.5971 176.779 89.1531 176.443 89.1051 175.867C89.0811 175.615 88.9491 175.507 88.7091 175.555L87.3531 175.855C87.1371 175.903 87.0291 176.035 87.0411 176.251C87.1011 177.187 87.6411 178.843 90.1611 178.843C93.0051 178.843 93.4131 176.719 93.4131 176.359C93.4131 173.599 89.6211 173.623 89.4531 172.687C89.4051 172.411 89.6931 172.135 90.1611 172.135C90.7251 172.135 91.1211 172.447 91.2051 172.939C91.2411 173.179 91.3611 173.287 91.6011 173.239L92.9691 172.939ZM103.638 175.219C103.482 175.039 103.314 175.039 103.134 175.195C102.978 175.351 102.774 175.519 102.606 175.651C102.546 175.699 102.486 175.699 102.438 175.639L101.682 174.775C101.622 174.715 101.634 174.655 101.694 174.607C102.558 173.947 102.858 173.287 103.014 172.579C103.254 171.319 102.45 170.203 100.986 170.059C99.354 169.903 98.55 170.815 98.334 171.775C98.094 172.819 98.526 173.623 98.934 174.127C98.994 174.187 98.982 174.247 98.91 174.295C97.614 175.279 97.362 176.575 97.818 177.535C98.178 178.255 99.006 178.879 100.134 178.879C100.842 178.879 101.61 178.687 102.282 178.243C102.342 178.207 102.402 178.207 102.45 178.267L102.714 178.591C102.858 178.771 103.038 178.795 103.218 178.651L104.022 178.027C104.202 177.883 104.226 177.703 104.058 177.523L103.806 177.235C103.758 177.187 103.758 177.127 103.818 177.067C103.998 176.923 104.202 176.743 104.37 176.587C104.538 176.431 104.538 176.251 104.394 176.083L103.638 175.219ZM100.026 172.195C100.086 171.919 100.338 171.655 100.746 171.703C101.166 171.751 101.322 172.183 101.274 172.435C101.214 172.699 100.926 172.999 100.578 173.227C100.518 173.263 100.458 173.251 100.41 173.191C100.014 172.639 99.966 172.483 100.026 172.195ZM99.678 176.815C99.318 176.359 99.69 175.975 100.11 175.663C100.158 175.627 100.218 175.639 100.266 175.687C100.482 175.951 100.854 176.395 101.07 176.647C101.118 176.707 101.118 176.767 101.046 176.815C100.554 177.115 99.93 177.139 99.678 176.815ZM109.535 170.263C109.295 170.275 109.175 170.395 109.175 170.635V178.303C109.175 178.531 109.307 178.663 109.535 178.663H112.211C114.467 178.663 115.211 177.739 115.211 175.771V173.143C115.211 171.175 114.467 170.263 112.211 170.263H109.535ZM111.599 176.599C111.371 176.599 111.239 176.467 111.239 176.239V172.687C111.239 172.447 111.371 172.327 111.599 172.327H112.247C112.823 172.327 113.111 172.399 113.111 173.143C113.111 173.155 113.111 175.771 113.111 175.783C113.111 176.503 112.823 176.599 112.247 176.599H111.599ZM121.34 175.651C121.316 175.591 121.328 175.531 121.376 175.495C122.012 175.039 122.288 174.259 122.288 173.143C122.288 171.175 121.424 170.263 119.288 170.263H116.66C116.444 170.263 116.288 170.419 116.288 170.635V178.291C116.288 178.507 116.444 178.663 116.66 178.663H118.004C118.22 178.663 118.376 178.507 118.376 178.291V176.395C118.376 176.179 118.532 176.023 118.748 176.023H119.228C119.264 176.023 119.3 176.047 119.324 176.083L120.572 178.495C120.62 178.603 120.728 178.663 120.848 178.663H122.216C122.588 178.663 122.78 178.327 122.612 178.015L121.34 175.651ZM119.36 172.327C119.936 172.327 120.224 172.399 120.224 173.143C120.224 173.887 119.936 173.959 119.36 173.959H118.748C118.532 173.959 118.376 173.803 118.376 173.587V172.699C118.376 172.483 118.532 172.327 118.748 172.327H119.36ZM125.081 170.263C125.321 170.263 125.441 170.383 125.441 170.623V178.303C125.441 178.531 125.321 178.663 125.081 178.663H123.761C123.533 178.663 123.401 178.531 123.401 178.303V170.623C123.401 170.383 123.533 170.263 123.761 170.263H125.081ZM128.76 170.263C128.964 170.263 129.096 170.347 129.18 170.539L130.812 174.535C130.86 174.643 130.956 174.619 130.956 174.499V170.623C130.956 170.383 131.088 170.263 131.316 170.263H132.66C132.9 170.263 133.02 170.383 133.02 170.623V178.303C133.02 178.531 132.9 178.663 132.66 178.663H130.896C130.692 178.663 130.56 178.579 130.476 178.387L128.844 174.391C128.796 174.283 128.7 174.307 128.7 174.427V178.303C128.7 178.531 128.58 178.663 128.34 178.663H126.996C126.768 178.663 126.636 178.531 126.636 178.303V170.623C126.636 170.383 126.768 170.263 126.996 170.263H128.76ZM138.346 174.211C138.298 174.151 138.31 174.103 138.346 174.043L140.77 170.707C140.938 170.455 140.842 170.263 140.542 170.263H138.766C138.574 170.263 138.442 170.335 138.334 170.491L136.45 173.083C136.39 173.179 136.306 173.155 136.306 173.035V170.623C136.306 170.383 136.186 170.263 135.946 170.263H134.578C134.35 170.263 134.218 170.383 134.218 170.623V178.303C134.218 178.531 134.35 178.663 134.578 178.663H135.946C136.186 178.663 136.306 178.531 136.306 178.303V176.971C136.306 176.911 136.318 176.863 136.354 176.815L136.846 176.143C136.894 176.071 136.966 176.071 137.014 176.143L138.502 178.423C138.61 178.591 138.742 178.663 138.934 178.663H140.734C141.022 178.663 141.13 178.471 140.962 178.231L138.346 174.211ZM147.25 172.939C147.466 172.891 147.574 172.759 147.562 172.543C147.49 171.679 146.914 170.071 144.442 170.071C141.754 170.071 141.538 172.195 141.55 172.555C141.55 175.315 145.162 175.087 145.39 176.107C145.462 176.431 145.03 176.779 144.442 176.779C143.878 176.779 143.434 176.443 143.386 175.867C143.362 175.615 143.23 175.507 142.99 175.555L141.634 175.855C141.418 175.903 141.31 176.035 141.322 176.251C141.382 177.187 141.922 178.843 144.442 178.843C147.286 178.843 147.694 176.719 147.694 176.359C147.694 173.599 143.902 173.623 143.734 172.687C143.686 172.411 143.974 172.135 144.442 172.135C145.006 172.135 145.402 172.447 145.486 172.939C145.522 173.179 145.642 173.287 145.882 173.239L147.25 172.939Z" fill="black"/>
</svg>
